<?xml version="1.0" encoding="utf-8"?>
<!-- Svg Vector Icons : http://www.onlinewebfonts.com/icon -->
<!DOCTYPE svg PUBLIC "-//W3C//DTD SVG 1.1//EN" "http://www.w3.org/Graphics/SVG/1.1/DTD/svg11.dtd">
<svg version="1.1" xmlns="http://www.w3.org/2000/svg" xmlns:xlink="http://www.w3.org/1999/xlink" x="0px" y="0px" viewBox="0 0 1000 1000" enable-background="new 0 0 1000 1000" xml:space="preserve" height="20" width="20">
<metadata> Svg Vector Icons : http://www.onlinewebfonts.com/icon </metadata>
<g fill="#211403"><path d="M968.4,880.7c-14.6,34.1-53.6,56.4-84.9,73.8c-41.1,22.3-82.8,35.5-129.5,35.5c-64.7,0-123.2-26.5-182.4-48c-42.5-15.3-83.5-34.1-121.8-57.8c-118.3-73.1-261-215.8-334.1-334.1C92.1,511.8,73.3,470.8,58,428.3c-21.6-59.2-48-117.6-48-182.4c0-46.6,13.2-88.4,35.5-129.5c17.4-31.3,39.7-70.3,73.8-84.9C142.2,21.1,191,10,216,10c4.9,0,9.7,0,14.6,2.1c14.6,4.9,29.9,39,36.9,52.9c22.3,39.7,43.9,80,66.8,119c11.1,18.1,32,40.4,32,61.9c0,42.5-126,104.4-126,142c0,18.8,17.4,43.1,27.1,59.9c70.3,126.7,158,214.4,284.7,284.7c16.7,9.7,41.1,27.1,59.9,27.1c37.6,0,99.5-126,142-126c21.6,0,43.8,20.9,61.9,32c39,23,79.3,44.5,119,66.8c13.9,7,48,22.3,52.9,36.9c2.1,4.9,2.1,9.7,2.1,14.6C990,809,978.9,857.8,968.4,880.7z"/></g>
</svg>
